<svg width="14" height="18" viewBox="0 0 14 18" fill="none" xmlns="http://www.w3.org/2000/svg">
<g clip-path="url(#clip0_28_82)">
<path d="M6.46191 6.14929L8.34051 8.72598L8.34946 8.59101C8.34946 7.23722 7.54734 6.13702 6.56032 6.13702L6.46191 6.14929Z" fill="black"/>
<path d="M6.56013 4.50091C8.20614 4.50091 9.54205 6.33323 9.54205 8.5909C9.54205 9.11851 9.46452 9.62158 9.33034 10.0837L11.0748 12.4764C11.9753 11.4457 12.685 10.1124 13.1233 8.5909C12.0886 4.99991 9.54504 2.45593 6.56016 2.45593C5.72522 2.45593 4.92609 2.66042 4.18359 3.02852L5.47178 4.79129C5.80869 4.61134 6.17547 4.50091 6.56013 4.50091Z" fill="black"/>
<path d="M0.596371 2.27201L1.95612 4.13704L2.22748 4.50924C1.24345 5.56446 0.465177 6.96733 0 8.59103C1.03175 12.182 3.57828 14.726 6.56019 14.726C7.48459 14.726 8.36722 14.4806 9.17533 14.0348L9.4288 14.3824L11.1673 16.771L11.9276 15.7321L1.35676 1.22906L0.596371 2.27201ZM3.89437 6.79145L4.81578 8.05525C4.78894 8.23114 4.77105 8.40698 4.77105 8.59103C4.77105 9.94482 5.57317 11.045 6.56019 11.045C6.69438 11.045 6.82261 11.0205 6.94785 10.9837L7.86926 12.2475C7.47265 12.5174 7.03135 12.681 6.56019 12.681C4.91418 12.681 3.57828 10.8487 3.57828 8.59103C3.57828 7.94482 3.69757 7.33949 3.89437 6.79145Z" fill="black"/>
</g>
<defs>
<clipPath id="clip0_28_82">
<rect width="13.1233" height="18" fill="white"/>
</clipPath>
</defs>
</svg>
